<svg width="350" height="350" viewBox="0 0 350 350" fill="none" xmlns="http://www.w3.org/2000/svg">
<path d="M147.508 216.464C140.44 216.464 133.797 212.063 129.278 204.369C125.319 197.647 123.135 188.83 123.135 179.573C123.135 170.301 125.319 161.499 129.278 154.776C133.797 147.098 140.456 142.682 147.508 142.682C154.576 142.682 161.219 147.082 165.738 154.776C169.697 161.499 171.881 170.316 171.881 179.573C171.881 188.83 169.697 197.647 165.738 204.369C161.219 212.048 154.576 216.464 147.508 216.464Z" fill="#1F2025" stroke="white" stroke-width="3" stroke-miterlimit="10"/>
<path d="M147.508 209.999C157.409 209.999 165.435 196.377 165.435 179.573C165.435 162.769 157.409 149.146 147.508 149.146C137.608 149.146 129.581 162.769 129.581 179.573C129.581 196.377 137.608 209.999 147.508 209.999Z" stroke="white" stroke-width="3" stroke-miterlimit="10"/>
<path d="M148.979 142.742L254.327 151.65C254.327 151.65 264.504 158.798 264.504 179.573C264.504 200.348 254.327 207.48 254.327 207.48L148.979 216.403" stroke="white" stroke-width="3" stroke-miterlimit="10"/>
<path d="M257.163 154.519L303.967 158.479C303.967 158.479 311.657 163.867 311.657 179.573C311.657 195.279 303.967 200.651 303.967 200.651L257.163 204.612" stroke="white" stroke-width="3" stroke-miterlimit="10"/>
<path d="M309.458 166.567L315.873 167.114C315.873 167.114 320.408 170.301 320.408 179.573C320.408 188.845 315.873 192.032 315.873 192.032L309.458 192.578" stroke="white" stroke-width="3" stroke-miterlimit="10"/>
<path d="M94.4097 216.464C87.342 216.464 80.699 212.063 76.1794 204.369C72.2209 197.647 70.0369 188.83 70.0369 179.573C70.0369 170.301 72.2209 161.499 76.1794 154.776C80.699 147.098 87.3572 142.682 94.4097 142.682C101.477 142.682 108.12 147.082 112.64 154.776C116.599 161.499 118.783 170.316 118.783 179.573C118.783 188.83 116.599 197.647 112.64 204.369C108.105 212.048 101.462 216.464 94.4097 216.464Z" fill="#1F2025" stroke="white" stroke-width="3" stroke-miterlimit="10"/>
<path d="M94.4097 209.999C104.31 209.999 112.337 196.377 112.337 179.573C112.337 162.769 104.31 149.146 94.4097 149.146C84.5089 149.146 76.4827 162.769 76.4827 179.573C76.4827 196.377 84.5089 209.999 94.4097 209.999Z" stroke="white" stroke-width="3" stroke-miterlimit="10"/>
<path d="M136.892 212.928L95.8657 216.403" stroke="white" stroke-width="3" stroke-miterlimit="10"/>
<path d="M95.8657 142.742L136.664 146.187" stroke="white" stroke-width="3" stroke-miterlimit="10"/>
<path d="M176.307 252.081L178.34 257.362L183.633 259.396L178.34 261.429L176.307 266.725L174.275 261.444L168.997 259.396L174.275 257.362L176.307 252.081Z" fill="#F12052"/>
<path d="M53.6016 106.085L55.6339 111.381L60.9271 113.415L55.6339 115.448L53.6016 120.744L51.5693 115.448L46.2913 113.415L51.5693 111.381L53.6016 106.085Z" fill="#F12052"/>
<path d="M195.222 99.0068L197.255 104.288L202.533 106.337L197.255 108.37L195.222 113.651L193.175 108.37L187.897 106.337L193.19 104.288L195.222 99.0068Z" fill="#F12052"/>
<path d="M311.657 230.67L313.689 235.966L318.967 238L313.689 240.033L311.657 245.329L309.625 240.033L304.332 238L309.625 235.966L311.657 230.67Z" fill="#F12052"/>
<path d="M267.686 264.448H266.442V319.868H267.686V264.448Z" fill="white"/>
<path d="M294.767 292.779V291.534H239.378V292.779H294.767Z" fill="white"/>
<path d="M247.917 272.129L247.037 273.009L286.202 312.196L287.082 311.317L247.917 272.129Z" fill="white"/>
<path d="M287.09 272.998L286.21 272.118L247.045 311.306L247.924 312.186L287.09 272.998Z" fill="white"/>
<path d="M267.064 297.105C269.795 297.105 272.009 294.89 272.009 292.158C272.009 289.426 269.795 287.211 267.064 287.211C264.334 287.211 262.12 289.426 262.12 292.158C262.12 294.89 264.334 297.105 267.064 297.105Z" fill="white"/>
<path d="M202.563 38.8223V63.9526C202.563 66.3654 204.52 68.3382 206.946 68.3382H257.087C259.499 68.3382 261.471 70.2959 261.471 72.7239V101.041C261.471 103.454 263.427 105.427 265.854 105.427H314.963" stroke="white" stroke-width="3" stroke-miterlimit="10"/>
<path d="M202.563 40.9012C203.711 40.9012 204.641 39.9704 204.641 38.8222C204.641 37.674 203.711 36.7432 202.563 36.7432C201.416 36.7432 200.485 37.674 200.485 38.8222C200.485 39.9704 201.416 40.9012 202.563 40.9012Z" fill="white"/>
<path d="M314.933 107.506C316.081 107.506 317.011 106.575 317.011 105.427C317.011 104.278 316.081 103.348 314.933 103.348C313.785 103.348 312.855 104.278 312.855 105.427C312.855 106.575 313.785 107.506 314.933 107.506Z" fill="white"/>
<path d="M15.3362 250.024H34.9467C37.5705 250.024 39.6938 252.149 39.6938 254.774V271.027C39.6938 273.652 41.8172 275.777 44.441 275.777H93.8388C96.4627 275.777 98.586 277.901 98.586 280.527V308.115C98.586 310.741 100.709 312.865 103.333 312.865H186.098" stroke="white" stroke-width="3" stroke-miterlimit="10"/>
<path d="M15.3361 252.103C16.4837 252.103 17.414 251.173 17.414 250.024C17.414 248.876 16.4837 247.945 15.3361 247.945C14.1886 247.945 13.2583 248.876 13.2583 250.024C13.2583 251.173 14.1886 252.103 15.3361 252.103Z" fill="white"/>
<path d="M186.082 314.93C187.23 314.93 188.16 313.999 188.16 312.851C188.16 311.702 187.23 310.771 186.082 310.771C184.935 310.771 184.005 311.702 184.005 312.851C184.005 313.999 184.935 314.93 186.082 314.93Z" fill="white"/>
</svg>
