<svg width="12" height="20" viewBox="0 0 12 20" fill="none" xmlns="http://www.w3.org/2000/svg">
<path fill-rule="evenodd" clip-rule="evenodd" d="M10.7479 1.29789C11.4731 2.12758 11.3921 3.39129 10.5669 4.12045L6.17568 8.00055L10.2711 9.10389C10.9797 9.29479 11.5263 9.86233 11.6932 10.5806C11.8602 11.2988 11.6204 12.0511 11.0694 12.538L3.88631 18.8851C3.0611 19.6142 1.80423 19.5327 1.07902 18.703C0.3538 17.8733 0.434859 16.6096 1.26007 15.8805L5.65126 12.0004L1.55583 10.897C0.847231 10.7061 0.300649 10.1386 0.133692 9.42036C-0.0332649 8.70212 0.206507 7.9498 0.757551 7.46289L7.94063 1.11585C8.76584 0.386689 10.0227 0.468189 10.7479 1.29789Z" fill="#205BF1"/>
</svg>
